<?xml version="1.0" encoding="UTF-8" standalone="no"?>
<!-- Created with Inkscape (http://www.inkscape.org/) -->

<svg
   xmlns:dc="http://purl.org/dc/elements/1.1/"
   xmlns:cc="http://creativecommons.org/ns#"
   xmlns:rdf="http://www.w3.org/1999/02/22-rdf-syntax-ns#"
   xmlns:svg="http://www.w3.org/2000/svg"
   xmlns="http://www.w3.org/2000/svg"
   xmlns:sodipodi="http://sodipodi.sourceforge.net/DTD/sodipodi-0.dtd"
   xmlns:inkscape="http://www.inkscape.org/namespaces/inkscape"
   width="137.5mm"
   height="55mm"
   viewBox="0 0 137.5 55"
   version="1.1"
   id="svg8"
   inkscape:version="0.92.4 (5da689c313, 2019-01-14)"
   sodipodi:docname="Logo 2.svg"
   inkscape:export-filename="C:\Users\ges12blp\Dropbox\_Archiv\Karriere\Doctorate Lars\CoLiBi\Logo.png"
   inkscape:export-xdpi="300"
   inkscape:export-ydpi="300">
  <defs
     id="defs2">
    <clipPath
       clipPathUnits="userSpaceOnUse"
       id="clipPath828">
      <rect
         style="fill:#a03010;fill-opacity:1;stroke:none;stroke-width:0.26458332;stroke-opacity:1"
         id="rect830"
         width="137.5"
         height="54.999996"
         x="3.4561203"
         y="235.17044" />
    </clipPath>
    <clipPath
       clipPathUnits="userSpaceOnUse"
       id="clipPath832">
      <rect
         style="fill:#a03010;fill-opacity:1;stroke:none;stroke-width:0.26458332;stroke-opacity:1"
         id="rect834"
         width="137.5"
         height="54.999996"
         x="3.4561203"
         y="235.17044"
         transform="rotate(-20.746485)" />
    </clipPath>
    <clipPath
       clipPathUnits="userSpaceOnUse"
       id="clipPath832-0">
      <rect
         style="fill:#a03010;fill-opacity:1;stroke:none;stroke-width:0.26458332;stroke-opacity:1"
         id="rect834-4"
         width="137.5"
         height="54.999996"
         x="3.4561203"
         y="235.17044"
         transform="rotate(-20.746485)" />
    </clipPath>
  </defs>
  <sodipodi:namedview
     id="base"
     pagecolor="#ffffff"
     bordercolor="#666666"
     borderopacity="1.0"
     inkscape:pageopacity="1"
     inkscape:pageshadow="2"
     inkscape:zoom="1.28"
     inkscape:cx="15.870685"
     inkscape:cy="109.83853"
     inkscape:document-units="mm"
     inkscape:current-layer="g829"
     showgrid="false"
     inkscape:window-width="1680"
     inkscape:window-height="1027"
     inkscape:window-x="1042"
     inkscape:window-y="282"
     inkscape:window-maximized="1"
     inkscape:pagecheckerboard="false" />
  <metadata
     id="metadata5">
    <rdf:RDF>
      <cc:Work
         rdf:about="">
        <dc:format>image/svg+xml</dc:format>
        <dc:type
           rdf:resource="http://purl.org/dc/dcmitype/StillImage" />
        <dc:title />
      </cc:Work>
    </rdf:RDF>
  </metadata>
  <g
     inkscape:label="Ebene 1"
     inkscape:groupmode="layer"
     id="layer1"
     transform="translate(0,-242)">
    <g
       id="g4570"
       transform="translate(6.8791668,4.7625002)">
      <g
         id="g829"
         transform="translate(-10.335287,2.0670573)">
        <text
           xml:space="preserve"
           style="font-style:normal;font-weight:normal;font-size:10.58333302px;line-height:1.25;font-family:sans-serif;letter-spacing:0px;word-spacing:0px;fill:#000000;fill-opacity:1;stroke:#100000;stroke-width:0.26458332;stroke-opacity:1"
           x="39.813541"
           y="284.29681"
           id="text3745"
           clip-path="url(#clipPath828)"><tspan
             sodipodi:role="line"
             id="tspan3743"
             x="39.813541"
             y="284.29681"
             style="font-style:normal;font-variant:normal;font-weight:normal;font-stretch:normal;font-size:33.86666489px;font-family:'Futura Md BT';-inkscape-font-specification:'Futura Md BT';stroke:none;stroke-width:0.26458332;stroke-opacity:1"><tspan
               style="font-style:normal;font-variant:normal;font-weight:normal;font-stretch:normal;font-size:33.86666489px;font-family:'Futura Md BT';-inkscape-font-specification:'Futura Md BT';fill:#012901;fill-opacity:1;stroke:none;stroke-opacity:1"
               id="tspan3747">Co</tspan><tspan
               style="font-style:normal;font-variant:normal;font-weight:normal;font-stretch:normal;font-size:33.86666489px;font-family:'Futura Md BT';-inkscape-font-specification:'Futura Md BT';fill:#100000;fill-opacity:1;stroke:none;stroke-opacity:1"
               id="tspan4560">Li</tspan><tspan
               style="font-style:normal;font-variant:normal;font-weight:normal;font-stretch:normal;font-size:33.86666489px;font-family:'Futura Md BT';-inkscape-font-specification:'Futura Md BT';fill:#a03010;fill-opacity:1;stroke:none;stroke-opacity:1"
               id="tspan4562">Bi</tspan></tspan></text>
        <path
           style="fill:#012901;fill-opacity:1;stroke-width:0.13197033"
           d="m 11.035242,283.5597 c 1.487323,-3.92645 4.360817,-6.89547 8.458463,-8.73965 1.09407,-0.4924 3.104055,-1.17473 5.594505,-1.89918 4.004121,-1.16477 4.343542,-1.27536 6.011737,-1.95883 2.902096,-1.18899 4.969196,-3.18043 5.626215,-5.42029 0.370766,-1.26399 0.45091,-2.23681 0.286893,-3.48248 -0.371082,-2.8183 -2.125597,-6.01125 -5.041204,-9.17422 -1.686451,-1.82954 -3.248124,-3.22497 -6.170024,-5.51321 -1.754996,-1.37441 -5.644222,-3.68516 -8.583182,-5.09964 -1.82002,-0.87595 -5.242539,-2.08734 -6.338787,-2.24361 l -0.724141,-0.10322 1.309665,2.84328 c 1.957733,4.25024 2.515091,5.36134 4.249228,8.47089 1.024739,1.8375 2.935024,4.73166 4.08797,6.19344 3.850664,4.88213 7.518115,6.76928 10.882202,5.59963 0.439256,-0.15272 1.066534,-0.45533 1.393952,-0.67247 0.596466,-0.39555 0.851285,-0.45151 0.741929,-0.1629 -0.101757,0.26854 -1.920535,1.5388 -2.72918,1.90609 -1.037737,0.47135 -1.912542,0.60283 -3.1993,0.48086 -2.633367,-0.24963 -5.460697,-2.41574 -8.395909,-6.43239 -1.796774,-2.45877 -3.579591,-5.48826 -5.340008,-9.07412 -1.582057,-3.22255 -4.5565169,-10.14546 -4.4639919,-10.38972 0.07241,-0.19114 0.237765,-0.18023 1.7215659,0.11365 5.906341,1.16981 13.481802,4.8376 18.848019,9.12559 3.262196,2.60673 5.286175,4.7293 7.120417,7.46727 0.893849,1.33424 1.974852,3.62877 2.366114,5.0223 l 0.275359,0.98073 0.707474,-1.03165 c 0.907127,-1.32279 2.275431,-2.79475 3.498243,-3.76327 1.833106,-1.45188 5.045908,-2.67772 8.025812,-3.06223 0.869816,-0.11223 0.895532,-0.12631 0.645355,-0.35323 -0.143308,-0.12998 -0.800847,-0.73862 -1.461198,-1.35253 -1.545059,-1.43639 -2.630064,-2.19335 -3.754312,-2.61921 -1.439379,-0.54523 -2.945122,-0.44106 -4.540953,0.31416 -0.610087,0.28872 -0.830356,0.30864 -0.738746,0.0668 0.117391,-0.3099 1.819537,-1.29607 2.671245,-1.54763 1.409815,-0.4164 2.085761,-0.37251 3.68294,0.23913 1.665762,0.63789 2.242065,1.04036 4.521318,3.15747 l 1.723043,1.60047 4.627456,1.75924 c 4.624052,1.75795 6.300793,2.5227 8.787236,4.00777 0.638579,0.3814 0.738734,0.48966 0.683039,0.73832 -0.08014,0.35779 -0.0996,0.35119 -1.921855,-0.65117 -2.070322,-1.13882 -7.804238,-3.30868 -9.625557,-3.64256 -5.94696,-1.09017 -11.543218,0.93176 -14.95457,5.40309 -0.804207,1.05409 -1.909152,3.04836 -2.096485,3.78387 -0.08534,0.33508 -0.407389,1.10165 -0.715648,1.70349 -1.298368,2.53491 -3.283497,4.33201 -6.303801,5.70672 -1.91035,0.8695 -2.823724,1.17876 -7.048673,2.3866 -1.610839,0.46051 -3.536177,1.05205 -4.278531,1.31453 -2.691301,0.95159 -4.84247,2.2491 -6.506545,3.92451 -0.875247,0.88121 -2.364673,2.96167 -3.213851,4.48917 -0.361777,0.65076 -0.56973,0.91247 -0.689113,0.86725 -0.134069,-0.0508 -0.07186,-0.32645 0.28817,-1.2769 z"
           id="path852"
           inkscape:connector-curvature="0" />
      </g>
      <flowRoot
         xml:space="preserve"
         id="flowRoot4843"
         style="font-style:normal;font-weight:normal;font-size:40px;line-height:1.25;font-family:sans-serif;letter-spacing:0px;word-spacing:0px;fill:#000000;fill-opacity:1;stroke:none"><flowRegion
           id="flowRegion4845"><rect
             id="rect4847"
             width="659.375"
             height="359.375"
             x="-36.71875"
             y="-71.961121" /></flowRegion><flowPara
           id="flowPara4849" /></flowRoot>    </g>
  </g>
</svg>
